# xmcd
#
# Track frame offsets:
#	150
#	24725
#	42500
#	59437
#	77000
#	96750
#	107925
#	126375
#	150750
#	163800
#	194700
#	225737
#	243675
#	258850
#	272700
#
# Disc length: 3897
#
# Revision: 1
# Processed by: cddbd v1.5.1PL0 Copyright (c) Steve Scherf et al.
# Submitted via: Media_Universe 3.0
# Normalized: r0:TDELIM( - )
#
DISCID=d20f370f
DTITLE=Various Artist - Superfunk Cdº2
DYEAR=1995
DGENRE=Disco
TTITLE0=Isley Brothers - That Lady
TTITLE1=Lenny Kravitz - Come On And Love Me
TTITLE2=Bill Withers - Use Me
TTITLE3=Curtis Mayfield - Superfly
TTITLE4=Keziah Jones - Rhythm Is Love
TTITLE5=Joe Tex - I Gotcha
TTITLE6=Mavis Staples - I'll Be Right There
TTITLE7=Fishbone - Properties Of Propaganda (Fuk This Shit On Up)
TTITLE8=Ike and Tina Turner - Nutbush City Limits
TTITLE9=Bootsy Collins - Blasters  Of The Universe
TTITLE10=Isaac Hayes - BRanded
TTITLE11=George Clinton - Get Satisfied
TTITLE12=John Handy - Hard Work
TTITLE13=O'Jays - Back Stabbers
TTITLE14=Living Colour - Love Rears Its Ugly Head (Live)
EXTD=
EXTT0=
EXTT1=
EXTT2=
EXTT3=
EXTT4=
EXTT5=
EXTT6=
EXTT7=
EXTT8=
EXTT9=
EXTT10=
EXTT11=
EXTT12=
EXTT13=
EXTT14=
PLAYORDER=
